<svg xmlns="http://www.w3.org/2000/svg" viewBox="0 0 633.89 1303.5"><defs><style>.body-main{fill:#9fa29d;}.body-side{fill:#312d42;}.display-recess{fill:#888c87;}.solar-cell{fill:#21181e;}.display-screen{fill:#4d674a;stroke:#7e827d;stroke-width:2px;}.btn-top,.display-screen{stroke-miterlimit:10;}.btn-del-ac{fill:#592b36;}.btn-text{fill:#fff;}.btn-regular{fill:#19181b;}.btn-advanced{fill:#3b3e43;}.btn-top,.cls-1{fill:#243052;}.cls-2{fill:#35477a;}.btn-directions-backing{fill:#31406e;}.btn-top{stroke:#35477a;stroke-width:0.5px;}</style></defs><title>calculator2</title><g id="Layer_2" data-name="Layer 2"><g id="calc"><g id="body"><path class="body-main" d="M317,1303.5c-103.52-.32-199.34-17.35-243.54-31-27.56-8.51-48.8-20.26-58-31-6-7-9-60.44-12-155-2.12-67.49-5.26-147-2-238,2.75-76.67,11.11-160.79,7-260-9-217,3-485,4-527s7-40,45-49S228,0,317,0,538.48,3.5,576.48,12.5s44,7,45,49,13,310,4,527q-.4,10-.66,19.76c-2.35,90.7,5.1,168.71,7.66,240.24,3.27,91,.13,170.51-2,238-3,94.56-6,148-12,155-5.37,6.27-14.85,12.89-27.29,19a211.73,211.73,0,0,1-30.71,12C516.28,1286.15,420.47,1303.18,317,1303.5Z"/><path class="body-side" d="M591.19,1260.5c12.44-6.11,21.92-12.73,27.29-19,6-7,9-60.44,12-155,2.13-67.49,5.27-147,2-238-2.14-59.84-7.7-124.21-8.09-196.75h0S614.59,850,591.19,1260.5Z"/><path class="body-side" d="M42.71,1260.5c-12.45-6.11-21.93-12.73-27.3-19-6-7-9-60.44-12-155-2.12-67.49-5.26-147-2-238C3.55,788.66,9.12,724.29,9.5,651.75h0S19.31,850,42.71,1260.5Z"/><path id="Recess" class="display-recess" d="M313.61,424.79c-122.25,0-180.94-6.8-208.18-15.42s-60-15.42-60-45.21V187.23a8.73,8.73,0,0,1,8.73-8.73H582.76a8.72,8.72,0,0,1,8.72,8.73V364.16c0,29.79-32.69,36.6-59.94,45.21s-95.69,15.42-217.93,15.42"/><rect id="Cell" class="solar-cell" x="287.98" y="50.5" width="265" height="86.5" rx="7.97" ry="7.97"/></g><rect id="Display" class="display-screen" x="72.98" y="189" width="490" height="195" rx="8.73" ry="8.73"/><g id="basics"><g id="del"><path class="btn-del-ac" d="M391.83,889h62.31A13.84,13.84,0,0,1,468,902.84v24.33A26.82,26.82,0,0,1,441.16,954H404.81A26.82,26.82,0,0,1,378,927.18V902.84A13.84,13.84,0,0,1,391.83,889Z"/><path class="btn-text" d="M394.12,906.45h6.64c7.87,0,12.31,4.42,12.31,12.74s-4.44,12.93-12.12,12.93h-6.83Zm6.37,22.48c5.58,0,8.56-3.34,8.56-9.74s-3-9.55-8.56-9.55H398v19.29Z"/><path class="btn-text" d="M418.42,906.45h15.12v3.3H422.33v7.31h9.47v3.3h-9.47v8.46h11.6v3.3H418.42Z"/><path class="btn-text" d="M439.27,906.45h3.91v22.37h10.93v3.3H439.27Z"/></g><g id="ac"><path class="btn-del-ac" d="M496.83,889h62.31A13.84,13.84,0,0,1,573,902.84v24.33A26.82,26.82,0,0,1,546.16,954H509.81A26.82,26.82,0,0,1,483,927.18V902.84A13.84,13.84,0,0,1,496.83,889Z"/><path class="btn-text" d="M515.26,906.45h4.51l8.52,25.67h-4.14l-4.19-14c-.87-2.79-1.65-5.66-2.44-8.55h-.16c-.75,2.91-1.54,5.76-2.41,8.55l-4.23,14h-4Zm-3.77,15.19h12v3.09h-12Z"/><path class="btn-text" d="M529.88,919.34C529.88,911,535,906,541.45,906a9.89,9.89,0,0,1,7.23,3.21l-2.12,2.53a6.82,6.82,0,0,0-5-2.32c-4.52,0-7.63,3.75-7.63,9.83s2.92,9.94,7.51,9.94a7.46,7.46,0,0,0,5.71-2.76l2.11,2.46a10.08,10.08,0,0,1-8,3.72C534.83,932.59,529.88,927.75,529.88,919.34Z"/></g><g id="decimal"><path class="btn-regular" d="M182.33,1174.5h62.31a13.84,13.84,0,0,1,13.84,13.84v24.33a26.82,26.82,0,0,1-26.82,26.82H195.31a26.82,26.82,0,0,1-26.82-26.82v-24.33A13.84,13.84,0,0,1,182.33,1174.5Z"/><path class="btn-text" d="M209.56,1218.2a3.43,3.43,0,1,1,3.42,3.58A3.45,3.45,0,0,1,209.56,1218.2Z"/></g><g id="ans"><path class="btn-regular" d="M392.33,1174.5h62.31a13.84,13.84,0,0,1,13.84,13.84v24.33a26.82,26.82,0,0,1-26.82,26.82H405.31a26.82,26.82,0,0,1-26.82-26.82v-24.33A13.84,13.84,0,0,1,392.33,1174.5Z"/><path class="btn-text" d="M403,1192.44h4.21l8,24h-3.87l-3.92-13.08c-.81-2.61-1.54-5.29-2.28-8h-.15c-.7,2.72-1.43,5.38-2.25,8l-3.95,13.08H395Zm-3.52,14.19h11.16v2.89H399.46Z"/><path class="btn-text" d="M418,1198.54h3l.28,2.49h.11c1.66-1.61,3.49-2.93,5.94-2.93,3.79,0,5.48,2.51,5.48,7.05v11.27h-3.62v-10.81c0-3.13-.92-4.4-3.07-4.4-1.7,0-2.85.85-4.48,2.49v12.72H418Z"/><path class="btn-text" d="M436.36,1214.37l1.73-2.33a8,8,0,0,0,5.1,2c2.15,0,3.19-1.08,3.19-2.45,0-1.67-2-2.41-4-3.14-2.43-.9-5.18-2.19-5.18-5.19s2.4-5.21,6.34-5.21a9.36,9.36,0,0,1,5.75,2.07l-1.69,2.26a6.71,6.71,0,0,0-4-1.57c-2,0-3,1-3,2.27,0,1.55,1.87,2.14,3.85,2.88,2.5.94,5.29,2,5.29,5.41,0,3-2.37,5.44-6.74,5.44A11,11,0,0,1,436.36,1214.37Z"/><path class="btn-text" d="M403,1192.44h4.21l8,24h-3.87l-3.92-13.08c-.81-2.61-1.54-5.29-2.28-8h-.15c-.7,2.72-1.43,5.38-2.25,8l-3.95,13.08H395Zm-3.52,14.19h11.16v2.89H399.46Z"/><path class="btn-text" d="M418,1198.54h3l.28,2.49h.11c1.66-1.61,3.49-2.93,5.94-2.93,3.79,0,5.48,2.51,5.48,7.05v11.27h-3.62v-10.81c0-3.13-.92-4.4-3.07-4.4-1.7,0-2.85.85-4.48,2.49v12.72H418Z"/><path class="btn-text" d="M436.36,1214.37l1.73-2.33a8,8,0,0,0,5.1,2c2.15,0,3.19-1.08,3.19-2.45,0-1.67-2-2.41-4-3.14-2.43-.9-5.18-2.19-5.18-5.19s2.4-5.21,6.34-5.21a9.36,9.36,0,0,1,5.75,2.07l-1.69,2.26a6.71,6.71,0,0,0-4-1.57c-2,0-3,1-3,2.27,0,1.55,1.87,2.14,3.85,2.88,2.5.94,5.29,2,5.29,5.41,0,3-2.37,5.44-6.74,5.44A11,11,0,0,1,436.36,1214.37Z"/></g><g id="equals"><path class="btn-regular" d="M497.33,1174.5h62.31a13.84,13.84,0,0,1,13.84,13.84v24.33a26.82,26.82,0,0,1-26.82,26.82H510.31a26.82,26.82,0,0,1-26.82-26.82v-24.33A13.84,13.84,0,0,1,497.33,1174.5Z"/><path class="btn-text" d="M517.49,1199.45h21V1203h-21Zm0,10.55h21v3.55h-21Z"/></g><g id="exp"><path class="btn-regular" d="M287.33,1174.5h62.31a13.84,13.84,0,0,1,13.84,13.84v24.33a26.82,26.82,0,0,1-26.82,26.82H300.31a26.82,26.82,0,0,1-26.82-26.82v-24.33A13.84,13.84,0,0,1,287.33,1174.5Z"/><path class="btn-text" d="M284.66,1213.62l6.06-6.2-6.06-6.19,1.9-1.94,6.06,6.24,6.06-6.24,1.89,1.94-6.06,6.19,6.06,6.2-1.89,1.94-6.06-6.24-6.06,6.24Z"/><path class="btn-text" d="M305.62,1217.51h5.75v-18.08h-4.62v-2.3a15.42,15.42,0,0,0,5.5-1.91H315v22.29h5.16v3H305.62Z"/><path class="btn-text" d="M324.13,1207.76c0-8.49,3.12-13,8.22-13s8.22,4.55,8.22,13-3.12,13.21-8.22,13.21S324.13,1216.25,324.13,1207.76Zm13,0c0-7.34-1.94-10.14-4.75-10.14s-4.75,2.8-4.75,10.14,1.94,10.33,4.75,10.33S337.1,1215.1,337.1,1207.76Z"/><path class="btn-text" d="M346.07,1191.35c-.12-.62-.24-1.21-.36-1.79s-.26-1.1-.39-1.6a6.67,6.67,0,0,0-.33-1,.9.9,0,0,0-.28-.32.7.7,0,0,0-.37-.08.88.88,0,0,0-.45.11,1.62,1.62,0,0,0-.43.39,8.51,8.51,0,0,0-.63.86l-.76-.51a7.61,7.61,0,0,1,1.42-1.67,2.64,2.64,0,0,1,2.26-.47,1.54,1.54,0,0,1,.49.26,1.63,1.63,0,0,1,.37.44,3.42,3.42,0,0,1,.32.73,10.27,10.27,0,0,1,.29,1.16c.09.46.17.93.24,1.43h.12c.75-1.06,1.32-1.84,1.71-2.33a9,9,0,0,1,1-1.09,2.84,2.84,0,0,1,.77-.51,2.71,2.71,0,0,1,1-.15,2.32,2.32,0,0,1,.9.15l-.47,2.13h-.82c-.05-.33-.19-.5-.41-.5a.62.62,0,0,0-.23,0,1,1,0,0,0-.29.15,4.12,4.12,0,0,0-.5.46c-.22.23-.46.5-.74.83l-.85,1-.8,1c.15.75.28,1.4.4,2s.24,1,.34,1.37.18.66.26.87a1.53,1.53,0,0,0,.24.48.85.85,0,0,0,.26.22.83.83,0,0,0,.32.06,1,1,0,0,0,.61-.24,5.83,5.83,0,0,0,.87-1.12l.76.5a7.45,7.45,0,0,1-1.48,1.73,2.62,2.62,0,0,1-1.59.5,1.91,1.91,0,0,1-.86-.18,1.63,1.63,0,0,1-.61-.59,4.32,4.32,0,0,1-.46-1.24,18.56,18.56,0,0,1-.44-2.31h-.12q-1.24,1.76-1.86,2.52a9.94,9.94,0,0,1-1,1.13,2.53,2.53,0,0,1-.76.51,2.69,2.69,0,0,1-1,.15,2.6,2.6,0,0,1-.91-.14l.47-2.13h.83c0,.33.18.49.41.49a.75.75,0,0,0,.34-.09,2.33,2.33,0,0,0,.53-.42c.23-.23.54-.58.94-1S345.31,1192.31,346.07,1191.35Z"/><path class="btn-text" d="M284.66,1213.62l6.06-6.2-6.06-6.19,1.9-1.94,6.06,6.24,6.06-6.24,1.89,1.94-6.06,6.19,6.06,6.2-1.89,1.94-6.06-6.24-6.06,6.24Z"/><path class="btn-text" d="M305.62,1217.51h5.75v-18.08h-4.62v-2.3a15.42,15.42,0,0,0,5.5-1.91H315v22.29h5.16v3H305.62Z"/><path class="btn-text" d="M324.13,1207.76c0-8.49,3.12-13,8.22-13s8.22,4.55,8.22,13-3.12,13.21-8.22,13.21S324.13,1216.25,324.13,1207.76Zm13,0c0-7.34-1.94-10.14-4.75-10.14s-4.75,2.8-4.75,10.14,1.94,10.33,4.75,10.33S337.1,1215.1,337.1,1207.76Z"/><path class="btn-text" d="M346.07,1191.35c-.12-.62-.24-1.21-.36-1.79s-.26-1.1-.39-1.6a6.67,6.67,0,0,0-.33-1,.9.9,0,0,0-.28-.32.7.7,0,0,0-.37-.08.88.88,0,0,0-.45.11,1.62,1.62,0,0,0-.43.39,8.51,8.51,0,0,0-.63.86l-.76-.51a7.61,7.61,0,0,1,1.42-1.67,2.64,2.64,0,0,1,2.26-.47,1.54,1.54,0,0,1,.49.26,1.63,1.63,0,0,1,.37.44,3.42,3.42,0,0,1,.32.73,10.27,10.27,0,0,1,.29,1.16c.09.46.17.93.24,1.43h.12c.75-1.06,1.32-1.84,1.71-2.33a9,9,0,0,1,1-1.09,2.84,2.84,0,0,1,.77-.51,2.71,2.71,0,0,1,1-.15,2.32,2.32,0,0,1,.9.15l-.47,2.13h-.82c-.05-.33-.19-.5-.41-.5a.62.62,0,0,0-.23,0,1,1,0,0,0-.29.15,4.12,4.12,0,0,0-.5.46c-.22.23-.46.5-.74.83l-.85,1-.8,1c.15.75.28,1.4.4,2s.24,1,.34,1.37.18.66.26.87a1.53,1.53,0,0,0,.24.48.85.85,0,0,0,.26.22.83.83,0,0,0,.32.06,1,1,0,0,0,.61-.24,5.83,5.83,0,0,0,.87-1.12l.76.5a7.45,7.45,0,0,1-1.48,1.73,2.62,2.62,0,0,1-1.59.5,1.91,1.91,0,0,1-.86-.18,1.63,1.63,0,0,1-.61-.59,4.32,4.32,0,0,1-.46-1.24,18.56,18.56,0,0,1-.44-2.31h-.12q-1.24,1.76-1.86,2.52a9.94,9.94,0,0,1-1,1.13,2.53,2.53,0,0,1-.76.51,2.69,2.69,0,0,1-1,.15,2.6,2.6,0,0,1-.91-.14l.47-2.13h.83c0,.33.18.49.41.49a.75.75,0,0,0,.34-.09,2.33,2.33,0,0,0,.53-.42c.23-.23.54-.58.94-1S345.31,1192.31,346.07,1191.35Z"/></g><g id="multiply"><path class="btn-regular" d="M392.33,984.5h62.31a13.84,13.84,0,0,1,13.84,13.84v24.33a26.82,26.82,0,0,1-26.82,26.82H405.31a26.82,26.82,0,0,1-26.82-26.82V998.34A13.84,13.84,0,0,1,392.33,984.5Z"/><path class="btn-text" d="M409.38,1026.86l10.15-10.36-10.15-10.36,3.45-3.52L423,1013.05l10.15-10.43,3.45,3.52-10.15,10.36,10.15,10.36-3.45,3.52L423,1020l-10.15,10.43Z"/></g><g id="divide"><path class="btn-regular" d="M497.33,984.5h62.31a13.84,13.84,0,0,1,13.84,13.84v24.33a26.82,26.82,0,0,1-26.82,26.82H510.31a26.82,26.82,0,0,1-26.82-26.82V998.34A13.84,13.84,0,0,1,497.33,984.5Z"/><path class="btn-text" d="M513.47,1014.06h29v4.81h-29Zm10.46-9.55a4.06,4.06,0,1,1,4.05,4A3.89,3.89,0,0,1,523.93,1004.51Zm0,23.91a4.06,4.06,0,1,1,4.05,4A3.89,3.89,0,0,1,523.93,1028.42Z"/></g><g id="subtract"><path class="btn-regular" d="M496.83,1079h62.31A13.84,13.84,0,0,1,573,1092.84v24.33A26.82,26.82,0,0,1,546.16,1144H509.81A26.82,26.82,0,0,1,483,1117.18v-24.33A13.84,13.84,0,0,1,496.83,1079Z"/><path class="btn-text" d="M513.38,1109.08h29.2v4.84h-29.2Z"/></g><g id="add"><path class="btn-regular" d="M391.83,1079h62.31A13.84,13.84,0,0,1,468,1092.84v24.33A26.82,26.82,0,0,1,441.16,1144H404.81A26.82,26.82,0,0,1,378,1117.18v-24.33A13.84,13.84,0,0,1,391.83,1079Z"/><path class="btn-text" d="M420.58,1113.78H409.25v-4.56h11.33v-12.09h4.81v12.09h11.32v4.56H425.39v12.09h-4.81Z"/></g></g><g id="advanced"><path class="btn-advanced" d="M332.78,806h56.41a7.8,7.8,0,0,1,7.8,7.8V834a17,17,0,0,1-17,17H342a17,17,0,0,1-17-17V813.8A7.8,7.8,0,0,1,332.78,806Z"/><path class="btn-advanced" d="M420.78,806h56.41a7.8,7.8,0,0,1,7.8,7.8V834a17,17,0,0,1-17,17H430a17,17,0,0,1-17-17V813.8A7.8,7.8,0,0,1,420.78,806Z"/><path class="btn-advanced" d="M508.78,806h56.41a7.8,7.8,0,0,1,7.8,7.8V834a17,17,0,0,1-17,17H518a17,17,0,0,1-17-17V813.8A7.8,7.8,0,0,1,508.78,806Z"/><path class="btn-advanced" d="M68.78,806h56.41a7.8,7.8,0,0,1,7.8,7.8V834a17,17,0,0,1-17,17H78a17,17,0,0,1-17-17V813.8A7.8,7.8,0,0,1,68.78,806Z"/><path class="btn-advanced" d="M156.78,806h56.41a7.8,7.8,0,0,1,7.8,7.8V834a17,17,0,0,1-17,17H166a17,17,0,0,1-17-17V813.8A7.8,7.8,0,0,1,156.78,806Z"/><path class="btn-advanced" d="M244.78,806h56.41a7.8,7.8,0,0,1,7.8,7.8V834a17,17,0,0,1-17,17H254a17,17,0,0,1-17-17V813.8A7.8,7.8,0,0,1,244.78,806Z"/><path class="btn-advanced" d="M332.78,731h56.41a7.8,7.8,0,0,1,7.8,7.8V759a17,17,0,0,1-17,17H342a17,17,0,0,1-17-17V738.8A7.8,7.8,0,0,1,332.78,731Z"/><path class="btn-advanced" d="M420.78,731h56.41a7.8,7.8,0,0,1,7.8,7.8V759a17,17,0,0,1-17,17H430a17,17,0,0,1-17-17V738.8A7.8,7.8,0,0,1,420.78,731Z"/><path class="btn-advanced" d="M508.78,731h56.41a7.8,7.8,0,0,1,7.8,7.8V759a17,17,0,0,1-17,17H518a17,17,0,0,1-17-17V738.8A7.8,7.8,0,0,1,508.78,731Z"/><path class="btn-advanced" d="M68.78,731h56.41a7.8,7.8,0,0,1,7.8,7.8V759a17,17,0,0,1-17,17H78a17,17,0,0,1-17-17V738.8A7.8,7.8,0,0,1,68.78,731Z"/><path class="btn-advanced" d="M156.78,731h56.41a7.8,7.8,0,0,1,7.8,7.8V759a17,17,0,0,1-17,17H166a17,17,0,0,1-17-17V738.8A7.8,7.8,0,0,1,156.78,731Z"/><path class="btn-advanced" d="M244.78,731h56.41a7.8,7.8,0,0,1,7.8,7.8V759a17,17,0,0,1-17,17H254a17,17,0,0,1-17-17V738.8A7.8,7.8,0,0,1,244.78,731Z"/><path class="btn-advanced" d="M332.78,656h56.41a7.8,7.8,0,0,1,7.8,7.8V684a17,17,0,0,1-17,17H342a17,17,0,0,1-17-17V663.8A7.8,7.8,0,0,1,332.78,656Z"/><path class="btn-advanced" d="M420.78,656h56.41a7.8,7.8,0,0,1,7.8,7.8V684a17,17,0,0,1-17,17H430a17,17,0,0,1-17-17V663.8A7.8,7.8,0,0,1,420.78,656Z"/><path class="btn-advanced" d="M508.78,656h56.41a7.8,7.8,0,0,1,7.8,7.8V684a17,17,0,0,1-17,17H518a17,17,0,0,1-17-17V663.8A7.8,7.8,0,0,1,508.78,656Z"/><path class="btn-advanced" d="M68.78,656h56.41a7.8,7.8,0,0,1,7.8,7.8V684a17,17,0,0,1-17,17H78a17,17,0,0,1-17-17V663.8A7.8,7.8,0,0,1,68.78,656Z"/><path class="btn-advanced" d="M156.78,656h56.41a7.8,7.8,0,0,1,7.8,7.8V684a17,17,0,0,1-17,17H166a17,17,0,0,1-17-17V663.8A7.8,7.8,0,0,1,156.78,656Z"/><path class="btn-advanced" d="M244.78,656h56.41a7.8,7.8,0,0,1,7.8,7.8V684a17,17,0,0,1-17,17H254a17,17,0,0,1-17-17V663.8A7.8,7.8,0,0,1,244.78,656Z"/><path class="btn-advanced" d="M420.78,581h56.41a7.8,7.8,0,0,1,7.8,7.8V609a17,17,0,0,1-17,17H430a17,17,0,0,1-17-17V588.8A7.8,7.8,0,0,1,420.78,581Z"/><path class="btn-advanced" d="M508.78,581h56.41a7.8,7.8,0,0,1,7.8,7.8V609a17,17,0,0,1-17,17H518a17,17,0,0,1-17-17V588.8A7.8,7.8,0,0,1,508.78,581Z"/><path class="btn-advanced" d="M68.78,581h56.41a7.8,7.8,0,0,1,7.8,7.8V609a17,17,0,0,1-17,17H78a17,17,0,0,1-17-17V588.8A7.8,7.8,0,0,1,68.78,581Z"/><path class="btn-advanced" d="M156.78,581h56.41a7.8,7.8,0,0,1,7.8,7.8V609a17,17,0,0,1-17,17H166a17,17,0,0,1-17-17V588.8A7.8,7.8,0,0,1,156.78,581Z"/></g><g id="numbers"><g id="nine"><path class="btn-regular" d="M286.83,889h62.31A13.84,13.84,0,0,1,363,902.84v24.33A26.82,26.82,0,0,1,336.16,954H299.81A26.82,26.82,0,0,1,273,927.18V902.84A13.84,13.84,0,0,1,286.83,889Z"/><path class="btn-text" d="M307.65,935.6l2.65-3a7.42,7.42,0,0,0,5.52,2.63c4.77,0,8.69-3.74,8.69-14.78,0-8.33-2.69-12.57-7.28-12.57-3.18,0-5.67,2.78-5.67,7.16s2.05,6.88,6,6.88c2.14,0,4.79-1.27,7-4.64l.18,3.67c-2.08,2.8-5.24,4.55-8,4.55-5.85,0-9.7-3.49-9.7-10.46,0-6.55,4.64-10.92,10.15-10.92,6.66,0,11.83,5.34,11.83,16.33,0,13.48-6.2,18.77-13,18.77A11.09,11.09,0,0,1,307.65,935.6Z"/></g><g id="eight"><path class="btn-regular" d="M181.83,889h62.31A13.84,13.84,0,0,1,258,902.84v24.33A26.82,26.82,0,0,1,231.16,954H194.81A26.82,26.82,0,0,1,168,927.18V902.84A13.84,13.84,0,0,1,181.83,889Z"/><path class="btn-text" d="M201.19,930.55c0-4.43,3.18-7.43,6.42-9.15v-.22c-2.58-1.8-4.78-4.35-4.78-8,0-5.37,4.25-8.91,9.9-8.91,6.06,0,9.83,3.79,9.83,9.19,0,3.57-2.56,6.61-4.72,8.2v.22c3.11,1.81,6,4.26,6,8.86,0,5.2-4.49,9.24-11.23,9.24C206,940,201.19,936,201.19,930.55Zm18,.07c0-4.27-4.17-5.8-9-7.77-2.6,1.74-4.53,4.21-4.53,7.23,0,3.69,3.06,6.33,7.1,6.33C216.53,936.41,219.16,934.08,219.16,930.62Zm-.78-16.86c0-3.3-2.1-5.88-5.74-5.88a5.1,5.1,0,0,0-5.36,5.32c0,3.94,3.63,5.62,7.67,7.23C217.16,918.4,218.38,916.2,218.38,913.76Z"/></g><g id="seven"><path class="btn-regular" d="M76.83,889h62.31A13.84,13.84,0,0,1,153,902.84v24.33A26.82,26.82,0,0,1,126.16,954H89.81A26.82,26.82,0,0,1,63,927.18V902.84A13.84,13.84,0,0,1,76.83,889Z"/><path class="btn-text" d="M113.69,908.48H96.77v-4.19h22.42v3c-8.13,10.31-9.73,18-10.32,31.41h-5C104.43,925.93,106.94,917.87,113.69,908.48Z"/></g><g id="six"><path class="btn-regular" d="M287.33,984.5h62.31a13.84,13.84,0,0,1,13.84,13.84v24.33a26.82,26.82,0,0,1-26.82,26.82H300.31a26.82,26.82,0,0,1-26.82-26.82V998.34A13.84,13.84,0,0,1,287.33,984.5Z"/><path class="btn-text" d="M306.8,1017.74c0-13.71,6.31-19.1,13.22-19.1a11.34,11.34,0,0,1,8.53,3.7l-2.7,3a7.52,7.52,0,0,0-5.61-2.68c-4.83,0-8.85,3.81-8.85,15,0,8.47,2.74,12.79,7.41,12.79,3.24,0,5.77-2.83,5.77-7.28s-2.08-7-6.12-7c-2.18,0-4.87,1.3-7.13,4.73l-.19-3.74c2.12-2.85,5.33-4.63,8.16-4.63,6,0,9.88,3.55,9.88,10.65,0,6.66-4.72,11.11-10.34,11.11C312.06,1034.36,306.8,1028.93,306.8,1017.74Z"/></g><g id="five"><path class="btn-regular" d="M182.33,984.5h62.31a13.84,13.84,0,0,1,13.84,13.84v24.33a26.82,26.82,0,0,1-26.82,26.82H195.31a26.82,26.82,0,0,1-26.82-26.82V998.34A13.84,13.84,0,0,1,182.33,984.5Z"/><path class="btn-text" d="M201.4,1029.3l2.38-3.18a11.62,11.62,0,0,0,8.52,3.86c4.1,0,7.3-2.89,7.3-7.52s-2.81-7.26-7.06-7.26c-2.33,0-3.75.69-5.8,2l-2.51-1.61L205.34,999h17.52v4.19H209.63l-.87,9.72a10.2,10.2,0,0,1,5.09-1.34c5.88,0,10.71,3.35,10.71,10.77S218.91,1034,212.84,1034A15.28,15.28,0,0,1,201.4,1029.3Z"/></g><g id="four"><path class="btn-regular" d="M77.33,984.5h62.31a13.84,13.84,0,0,1,13.84,13.84v24.33a26.82,26.82,0,0,1-26.82,26.82H90.31a26.82,26.82,0,0,1-26.82-26.82V998.34A13.84,13.84,0,0,1,77.33,984.5Z"/><path class="btn-text" d="M111.06,1011.06c0-1.86.16-4.88.26-6.74h-.21c-.87,1.68-1.84,3.24-2.81,5l-7.58,11.21h19.57v3.87H95.68v-3.27l14.44-21.82h5.57v34.42h-4.63Z"/></g><g id="three"><path class="btn-regular" d="M286.83,1079h62.31A13.84,13.84,0,0,1,363,1092.84v24.33A26.82,26.82,0,0,1,336.16,1144H299.81A26.82,26.82,0,0,1,273,1117.18v-24.33A13.84,13.84,0,0,1,286.83,1079Z"/><path class="btn-text" d="M306.5,1124.5l2.43-3.18a11.63,11.63,0,0,0,8.62,4c4.07,0,6.95-2.31,6.95-6,0-4-2.68-6.57-10.76-6.57V1109c7.14,0,9.55-2.69,9.55-6.17,0-3.23-2.2-5.24-5.72-5.24a10.23,10.23,0,0,0-7.22,3.43l-2.61-3.08c2.73-2.5,5.92-4.31,10-4.31,6.14,0,10.51,3.21,10.51,8.83,0,4.07-2.46,6.71-6.19,8.11v.22c4.14,1,7.39,4,7.39,8.7,0,6.17-5.17,9.86-11.55,9.86A14.62,14.62,0,0,1,306.5,1124.5Z"/></g><g id="two"><path class="btn-regular" d="M181.83,1079h62.31A13.84,13.84,0,0,1,258,1092.84v24.33A26.82,26.82,0,0,1,231.16,1144H194.81A26.82,26.82,0,0,1,168,1117.18v-24.33A13.84,13.84,0,0,1,181.83,1079Z"/><path class="btn-text" d="M201.86,1126.15c10.14-10,16-16.2,16-21.71,0-3.85-2.1-6.51-6.31-6.51-2.82,0-5.23,1.8-7.16,4l-2.81-2.74c2.95-3.23,6.07-5.26,10.59-5.26,6.42,0,10.47,4,10.47,10.24,0,6.37-5.86,12.76-13.65,20.94,1.85-.16,4-.31,5.78-.31h9.55v4.2H201.86Z"/></g><g id="one"><path class="btn-regular" d="M76.83,1079h62.31A13.84,13.84,0,0,1,153,1092.84v24.33A26.82,26.82,0,0,1,126.16,1144H89.81A26.82,26.82,0,0,1,63,1117.18v-24.33A13.84,13.84,0,0,1,76.83,1079Z"/><path class="btn-text" d="M98.1,1124.65h7.84V1100h-6.3v-3.13a21.19,21.19,0,0,0,7.49-2.61h3.71v30.36h7v4.06H98.1Z"/></g><g id="zero"><path class="btn-regular" d="M77.33,1174.5h62.31a13.84,13.84,0,0,1,13.84,13.84v24.33a26.82,26.82,0,0,1-26.82,26.82H90.31a26.82,26.82,0,0,1-26.82-26.82v-24.33A13.84,13.84,0,0,1,77.33,1174.5Z"/><path class="btn-text" d="M96.78,1206.37c0-11.57,4.26-17.73,11.2-17.73s11.2,6.19,11.2,17.73-4.25,18-11.2,18S96.78,1217.93,96.78,1206.37Zm17.67,0c0-10-2.64-13.81-6.47-13.81s-6.46,3.81-6.46,13.81,2.64,14.07,6.46,14.07S114.45,1216.37,114.45,1206.37Z"/></g></g><g id="dpad"><g id="inner-circle"><circle class="cls-1" cx="316.75" cy="543.59" r="47"/><path class="cls-2" d="M316.75,497.59a46,46,0,1,1-46,46,46.06,46.06,0,0,1,46-46m0-2a48,48,0,1,0,48,48,48,48,0,0,0-48-48Z"/></g><path id="up-backing" class="btn-directions-backing" d="M263.71,490.59l19.1,19.09a48,48,0,0,1,67.88,0l19.09-19.09A75,75,0,0,0,263.71,490.59Z"/><path id="left-backing" class="btn-directions-backing" d="M263.75,597,282.84,578a48,48,0,0,1,0-67.89L263.75,491A75,75,0,0,0,263.75,597Z"/><path id="down-backing" class="btn-directions-backing" d="M369.78,597l-19.09-19.09a48,48,0,0,1-67.88,0L263.71,597A75,75,0,0,0,369.78,597Z"/><path id="right-backing" class="btn-directions-backing" d="M369.75,491l-19.09,19.09a48,48,0,0,1,0,67.89L369.75,597A75,75,0,0,0,369.75,491Z"/><path id="up" class="btn-directions" d="M263.71,490.59l19.1,19.09a48,48,0,0,1,67.88,0l19.09-19.09A75,75,0,0,0,263.71,490.59Zm44.42-2.5,8.94-13.32L326,488.09Z"/><path id="left" class="btn-directions" d="M263.75,596.62l19.09-19.09a48,48,0,0,1,0-67.88l-19.09-19.09A75,75,0,0,0,263.75,596.62Zm-2.5-44.42-13.32-8.93,13.32-8.93Z"/><path id="down" class="btn-directions" d="M369.78,596.59,350.69,577.5a48,48,0,0,1-67.88,0l-19.1,19.09A75,75,0,0,0,369.78,596.59Zm-44.42,2.5-8.93,13.32-8.93-13.32Z"/><path id="right" class="cls-1" d="M369.75,490.65l-19.09,19.09a48,48,0,0,1,0,67.89l19.09,19.09A75,75,0,0,0,369.75,490.65Zm2.5,44.42L385.57,544l-13.32,8.94Z"/></g><g id="topkeys"><ellipse id="On" class="btn-top" cx="456.37" cy="509.52" rx="35.62" ry="23.41" transform="translate(-72.57 75.81) rotate(-8.8)"/><ellipse id="Mode" class="btn-top" cx="546.04" cy="499.17" rx="35.62" ry="23.41" transform="translate(-69.94 89.41) rotate(-8.8)"/><ellipse id="Alpha" class="btn-top" cx="177.74" cy="509.51" rx="23.41" ry="35.62" transform="translate(-352.97 607.21) rotate(-81.2)"/><ellipse id="Shift" class="btn-top" cx="88.07" cy="499.16" rx="23.41" ry="35.62" transform="translate(-418.69 509.83) rotate(-81.2)"/></g></g></g></svg>