<svg xmlns="http://www.w3.org/2000/svg" viewBox="0 0 1 11.44">
  <defs>
    <style>
      .cls-1 {
        fill: #fff;
      }
    </style>
  </defs>
  <title>caret</title>
  <g id="Layer_2" data-name="Layer 2">
    <g id="caret">
      <rect class="cls-1" width="1" height="1" />
      <polygon points="1 0 0 0 0 1 1 1 1 0 1 0" />
      <rect class="cls-1" y="1.3" width="1" height="1" />
      <polygon points="1 1.3 0 1.3 0 2.31 1 2.31 1 1.3 1 1.3" />
      <rect class="cls-1" y="2.61" width="1" height="1" />
      <polygon points="1 2.61 0 2.61 0 3.61 1 3.61 1 2.61 1 2.61" />
      <rect class="cls-1" y="3.91" width="1" height="1" />
      <polygon points="1 3.91 0 3.91 0 4.91 1 4.91 1 3.91 1 3.91" />
      <rect class="cls-1" y="5.22" width="1" height="1" />
      <polygon points="1 5.22 0 5.22 0 6.22 1 6.22 1 5.22 1 5.22" />
      <rect class="cls-1" y="6.52" width="1" height="1" />
      <polygon points="1 6.52 0 6.52 0 7.52 1 7.52 1 6.52 1 6.52" />
      <rect class="cls-1" y="7.83" width="1" height="1" />
      <polygon points="1 7.83 0 7.83 0 8.83 1 8.83 1 7.83 1 7.83" />
      <rect class="cls-1" y="9.13" width="1" height="1" />
      <polygon points="1 9.13 0 9.13 0 10.13 1 10.13 1 9.13 1 9.13" />
      <rect class="cls-1" y="10.44" width="1" height="1" />
      <polygon points="1 10.44 0 10.44 0 11.44 1 11.44 1 10.44 1 10.44" />
    </g>
  </g>
</svg>