<svg xmlns="http://www.w3.org/2000/svg" viewBox="0 0 14.25 25.5"><title>left-overflow</title><g id="Layer_2" data-name="Layer 2"><g id="left"><rect x="11.25" width="3" height="3"/><rect x="11.25" y="3.75" width="3" height="3"/><rect x="11.25" y="7.5" width="3" height="3"/><rect x="11.25" y="11.25" width="3" height="3"/><rect x="11.25" y="15" width="3" height="3"/><rect x="11.25" y="18.75" width="3" height="3"/><rect x="7.5" y="3.75" width="3" height="3"/><rect x="7.5" y="7.5" width="3" height="3"/><rect x="7.5" y="11.25" width="3" height="3"/><rect x="7.5" y="15" width="3" height="3"/><rect x="7.5" y="18.75" width="3" height="3"/><rect x="3.75" y="7.5" width="3" height="3"/><rect x="3.75" y="11.25" width="3" height="3"/><rect x="3.75" y="15" width="3" height="3"/><rect y="11.25" width="3" height="3"/><rect x="11.25" y="22.5" width="3" height="3"/></g></g></svg>