<svg xmlns="http://www.w3.org/2000/svg" viewBox="0 0 90 65"><defs><style>.btn{fill:#19181b;}.btn-text{fill:#fff;}</style></defs><title>eight</title><g id="Layer_2" data-name="Layer 2"><g id="eight"><path id="btn-eight" class="btn" d="M13.84,0H76.16A13.84,13.84,0,0,1,90,13.84V38.18A26.82,26.82,0,0,1,63.18,65H26.82A26.82,26.82,0,0,1,0,38.18V13.84A13.84,13.84,0,0,1,13.84,0Z"/><path id="text-eight" class="btn-text" d="M33.68,40.89c0-4.43,3.17-7.43,6.41-9.15v-.22c-2.57-1.8-4.78-4.35-4.78-8,0-5.37,4.26-8.91,9.91-8.91,6.06,0,9.82,3.79,9.82,9.19,0,3.57-2.56,6.61-4.71,8.2v.22c3.1,1.81,6,4.26,6,8.86,0,5.2-4.5,9.24-11.23,9.24C38.51,50.34,33.68,46.38,33.68,40.89Zm18,.07c0-4.27-4.16-5.8-9-7.77-2.6,1.74-4.53,4.21-4.53,7.23,0,3.69,3.07,6.33,7.11,6.33C49,46.75,51.64,44.42,51.64,41ZM50.86,24.1c0-3.3-2.09-5.88-5.74-5.88a5.09,5.09,0,0,0-5.35,5.32c0,3.94,3.63,5.62,7.67,7.23C49.65,28.74,50.86,26.54,50.86,24.1Z"/></g></g></svg>