<svg xmlns="http://www.w3.org/2000/svg" viewBox="0 0 90 65"><defs><style>.cls-1{fill:#19181b;}.cls-2{fill:#fff;}</style></defs><title>Eight</title><g id="Layer_2" data-name="Layer 2"><g id="Layer_1-2" data-name="Layer 1"><g id="Eight"><path class="cls-1" d="M13.84,0H76.16A13.84,13.84,0,0,1,90,13.84V38.18A26.82,26.82,0,0,1,63.18,65H26.82A26.82,26.82,0,0,1,0,38.18V13.84A13.84,13.84,0,0,1,13.84,0Z"/><path class="cls-2" d="M33.21,41.55c0-4.43,3.17-7.43,6.42-9.15v-.22c-2.58-1.8-4.79-4.35-4.79-8,0-5.37,4.26-8.91,9.91-8.91,6.06,0,9.82,3.79,9.82,9.19,0,3.57-2.56,6.61-4.71,8.2v.22c3.1,1.81,6,4.26,6,8.86,0,5.2-4.5,9.24-11.23,9.24C38,51,33.21,47,33.21,41.55Zm18,.07c0-4.27-4.16-5.8-9.05-7.77-2.6,1.74-4.53,4.21-4.53,7.23,0,3.69,3.07,6.33,7.11,6.33C48.54,47.41,51.17,45.08,51.17,41.62Zm-.78-16.86c0-3.3-2.09-5.88-5.74-5.88A5.09,5.09,0,0,0,39.3,24.2c0,3.94,3.63,5.62,7.67,7.23C49.18,29.4,50.39,27.2,50.39,24.76Z"/></g></g></g></svg>