<svg xmlns="http://www.w3.org/2000/svg" viewBox="0 0 90 65"><defs><style>.cls-1{fill:#19181b;}.cls-2{fill:#fff;}</style></defs><title>Five</title><g id="Layer_2" data-name="Layer 2"><g id="Layer_1-2" data-name="Layer 1"><g id="Five"><path class="cls-1" d="M13.84,0H76.16A13.84,13.84,0,0,1,90,13.84V38.18A26.82,26.82,0,0,1,63.18,65H26.82A26.82,26.82,0,0,1,0,38.18V13.84A13.84,13.84,0,0,1,13.84,0Z"/><path class="cls-2" d="M32.92,44.8l2.38-3.18a11.62,11.62,0,0,0,8.51,3.86c4.11,0,7.3-2.89,7.3-7.52s-2.81-7.26-7-7.26c-2.33,0-3.75.69-5.8,2.05l-2.52-1.61,1.12-16.67H54.38v4.19H41.14l-.86,9.72A10.17,10.17,0,0,1,45.37,27c5.88,0,10.71,3.35,10.71,10.77S50.42,49.54,44.35,49.54A15.27,15.27,0,0,1,32.92,44.8Z"/></g></g></g></svg>