<svg xmlns="http://www.w3.org/2000/svg" viewBox="0 0 90 65"><defs><style>.btn{fill:#19181b;}.btn-text{fill:#fff;}</style></defs><title>five</title><g id="Layer_2" data-name="Layer 2"><g id="five"><path id="btn-five" class="btn" d="M13.84,0H76.16A13.84,13.84,0,0,1,90,13.84V38.18A26.82,26.82,0,0,1,63.18,65H26.82A26.82,26.82,0,0,1,0,38.18V13.84A13.84,13.84,0,0,1,13.84,0Z"/><path id="text-five" class="btn-text" d="M32.78,44.39l2.38-3.18a11.62,11.62,0,0,0,8.51,3.86c4.11,0,7.3-2.89,7.3-7.52s-2.81-7.27-7-7.27c-2.33,0-3.75.7-5.8,2l-2.51-1.6,1.11-16.68H54.24v4.2H41L40.14,28a10.17,10.17,0,0,1,5.09-1.34c5.88,0,10.71,3.35,10.71,10.77S50.28,49.12,44.21,49.12A15.31,15.31,0,0,1,32.78,44.39Z"/></g></g></svg>