<svg xmlns="http://www.w3.org/2000/svg" viewBox="0 0 90 65"><defs><style>.cls-1{fill:#19181b;}.cls-2{fill:#fff;}</style></defs><title>Four</title><g id="Layer_2" data-name="Layer 2"><g id="Layer_1-2" data-name="Layer 1"><g id="Four"><path class="cls-1" d="M13.84,0H76.16A13.84,13.84,0,0,1,90,13.84V38.18A26.82,26.82,0,0,1,63.18,65H26.82A26.82,26.82,0,0,1,0,38.18V13.84A13.84,13.84,0,0,1,13.84,0Z"/><path class="cls-2" d="M47.58,26.56c0-1.86.15-4.88.26-6.74h-.21c-.87,1.68-1.84,3.24-2.81,5L37.24,36H56.8v3.87H32.2V36.61L46.64,14.79h5.57V49.21H47.58Z"/></g></g></g></svg>