<svg xmlns="http://www.w3.org/2000/svg" viewBox="0 0 90 65"><defs><style>.btn{fill:#19181b;}.btn-text{fill:#fff;}</style></defs><title>four</title><g id="Layer_2" data-name="Layer 2"><g id="four"><path id="btn-four" class="btn" d="M13.84,0H76.16A13.84,13.84,0,0,1,90,13.84V38.18A26.82,26.82,0,0,1,63.18,65H26.82A26.82,26.82,0,0,1,0,38.18V13.84A13.84,13.84,0,0,1,13.84,0Z"/><path id="text-four" class="btn-text" d="M47.81,25.82c0-1.86.15-4.88.26-6.74h-.21c-.87,1.68-1.84,3.24-2.81,5L37.47,35.27H57v3.87H32.43V35.87L46.87,14.05h5.57V48.47H47.81Z"/></g></g></svg>