<svg xmlns="http://www.w3.org/2000/svg" viewBox="0 0 90 65"><defs><style>.btn{fill:#19181b;}.btn-text{fill:#fff;}</style></defs><title>nine</title><g id="Layer_2" data-name="Layer 2"><g id="nine"><path id="btn-nine" class="btn" d="M13.84,0H76.16A13.84,13.84,0,0,1,90,13.84V38.18A26.82,26.82,0,0,1,63.18,65H26.82A26.82,26.82,0,0,1,0,38.18V13.84A13.84,13.84,0,0,1,13.84,0Z"/><path id="text-nine" class="btn-text" d="M34.19,45.42l2.69-3a7.55,7.55,0,0,0,5.62,2.69c4.85,0,8.84-3.82,8.84-15,0-8.47-2.74-12.79-7.4-12.79-3.25,0-5.78,2.83-5.78,7.28s2.09,7,6.13,7c2.18,0,4.87-1.3,7.13-4.72l.19,3.73c-2.12,2.85-5.34,4.63-8.17,4.63-5.95,0-9.87-3.55-9.87-10.65,0-6.66,4.72-11.1,10.33-11.1,6.78,0,12,5.43,12,16.61,0,13.72-6.31,19.1-13.22,19.1A11.28,11.28,0,0,1,34.19,45.42Z"/></g></g></svg>