<svg xmlns="http://www.w3.org/2000/svg" viewBox="0 0 90 65"><defs><style>.cls-1{fill:#19181b;}.cls-2{fill:#fff;}</style></defs><title>Nine</title><g id="Layer_2" data-name="Layer 2"><g id="Layer_1-2" data-name="Layer 1"><g id="Nine"><path class="cls-1" d="M13.84,0H76.16A13.84,13.84,0,0,1,90,13.84V38.18A26.82,26.82,0,0,1,63.18,65H26.82A26.82,26.82,0,0,1,0,38.18V13.84A13.84,13.84,0,0,1,13.84,0Z"/><path class="cls-2" d="M34.67,46.6l2.65-3a7.42,7.42,0,0,0,5.52,2.63c4.76,0,8.69-3.74,8.69-14.78,0-8.33-2.69-12.57-7.28-12.57-3.18,0-5.67,2.78-5.67,7.16s2.05,6.88,6,6.88c2.14,0,4.78-1.27,7-4.64L51.79,32c-2.08,2.8-5.24,4.55-8,4.55-5.86,0-9.71-3.49-9.71-10.46,0-6.55,4.64-10.92,10.16-10.92,6.66,0,11.83,5.34,11.83,16.33,0,13.48-6.2,18.77-13,18.77A11.07,11.07,0,0,1,34.67,46.6Z"/></g></g></g></svg>