<svg xmlns="http://www.w3.org/2000/svg" viewBox="0 0 300.5 350.5">
  <defs>
    <style>
      .btn {
        fill: #19181b;
      }

      .btn-text {
        fill: #fff;
      }
    </style>
  </defs>
  <title>numpad</title>
  <g id="Layer_2" data-name="Layer 2">
    <g id="numbers">
      <g id="nine">
        <path class="btn" d="M223.84,0h62.31A13.84,13.84,0,0,1,300,13.84V38.18A26.82,26.82,0,0,1,273.18,65H236.82A26.82,26.82,0,0,1,210,38.18V13.84A13.84,13.84,0,0,1,223.84,0Z" />
        <path class="btn-text" d="M244.19,45.42l2.69-3a7.55,7.55,0,0,0,5.62,2.69c4.85,0,8.84-3.82,8.84-15,0-8.47-2.74-12.79-7.4-12.79-3.25,0-5.78,2.83-5.78,7.28s2.09,7,6.13,7c2.18,0,4.87-1.3,7.13-4.72l.19,3.73c-2.12,2.85-5.34,4.63-8.17,4.63-5.95,0-9.87-3.55-9.87-10.65,0-6.66,4.72-11.1,10.33-11.1,6.78,0,12,5.43,12,16.61,0,13.72-6.31,19.1-13.22,19.1A11.28,11.28,0,0,1,244.19,45.42Z" />
      </g>
      <g id="eight">
        <path class="btn" d="M118.84,0h62.31A13.84,13.84,0,0,1,195,13.84V38.18A26.82,26.82,0,0,1,168.18,65H131.82A26.82,26.82,0,0,1,105,38.18V13.84A13.84,13.84,0,0,1,118.84,0Z" />
        <path class="btn-text" d="M138.68,40.89c0-4.43,3.18-7.43,6.42-9.15v-.22c-2.58-1.8-4.79-4.35-4.79-8,0-5.37,4.26-8.91,9.91-8.91,6.06,0,9.82,3.79,9.82,9.19,0,3.57-2.56,6.61-4.71,8.2v.22c3.1,1.81,6,4.26,6,8.86,0,5.2-4.5,9.24-11.23,9.24C143.51,50.34,138.68,46.38,138.68,40.89Zm18,.07c0-4.27-4.16-5.8-9-7.77-2.6,1.74-4.53,4.21-4.53,7.23,0,3.69,3.07,6.33,7.11,6.33C154,46.75,156.64,44.42,156.64,41Zm-.78-16.86c0-3.3-2.09-5.88-5.74-5.88a5.09,5.09,0,0,0-5.35,5.32c0,3.94,3.63,5.62,7.67,7.23C154.65,28.74,155.86,26.54,155.86,24.1Z" />
      </g>
      <g id="seven">
        <path class="btn" d="M13.84,0H76.16A13.84,13.84,0,0,1,90,13.84V38.18A26.82,26.82,0,0,1,63.18,65H26.82A26.82,26.82,0,0,1,0,38.18V13.84A13.84,13.84,0,0,1,13.84,0Z" />
        <path class="btn-text" d="M50.76,18.25H33.85v-4.2H56.26v3c-8.13,10.32-9.73,18-10.32,31.41h-5C41.5,35.7,44,27.64,50.76,18.25Z" />
      </g>
      <g id="six">
        <path class="btn" d="M224.34,95.5h62.31a13.84,13.84,0,0,1,13.84,13.84v24.33a26.82,26.82,0,0,1-26.82,26.82H237.32a26.82,26.82,0,0,1-26.82-26.82V109.34A13.84,13.84,0,0,1,224.34,95.5Z" />
        <path class="btn-text" d="M244.52,128c0-13.72,6.31-19.1,13.22-19.1a11.31,11.31,0,0,1,8.53,3.7l-2.7,3A7.55,7.55,0,0,0,258,113c-4.82,0-8.84,3.81-8.84,15,0,8.47,2.74,12.79,7.41,12.79,3.24,0,5.77-2.83,5.77-7.29s-2.08-7-6.13-7c-2.17,0-4.86,1.29-7.13,4.72l-.18-3.73c2.11-2.86,5.33-4.63,8.16-4.63,6,0,9.88,3.55,9.88,10.64,0,6.67-4.73,11.11-10.34,11.11C249.78,144.62,244.52,139.19,244.52,128Z" />
      </g>
      <g id="five">
        <path class="btn" d="M119.34,95.5h62.31a13.84,13.84,0,0,1,13.84,13.84v24.33a26.82,26.82,0,0,1-26.82,26.82H132.32a26.82,26.82,0,0,1-26.82-26.82V109.34A13.84,13.84,0,0,1,119.34,95.5Z" />
        <path class="btn-text" d="M138.28,139.89l2.38-3.18a11.62,11.62,0,0,0,8.51,3.86c4.11,0,7.3-2.89,7.3-7.52s-2.81-7.27-7.05-7.27c-2.33,0-3.75.7-5.8,2l-2.51-1.6,1.11-16.68h17.52v4.2H146.5l-.86,9.72a10.17,10.17,0,0,1,5.09-1.34c5.88,0,10.71,3.35,10.71,10.77s-5.66,11.72-11.73,11.72A15.31,15.31,0,0,1,138.28,139.89Z" />
      </g>
      <g id="four">
        <path class="btn" d="M14.34,95.5H76.66A13.84,13.84,0,0,1,90.5,109.34v24.33A26.82,26.82,0,0,1,63.68,160.5H27.32A26.82,26.82,0,0,1,.5,133.68V109.34A13.84,13.84,0,0,1,14.34,95.5Z" />
        <path class="btn-text" d="M48.31,121.32c0-1.86.15-4.88.26-6.74h-.21c-.87,1.68-1.84,3.24-2.81,5L38,130.77H57.53v3.87H32.93v-3.27l14.44-21.82h5.57V144H48.31Z" />
      </g>
      <g id="three">
        <path class="btn" d="M223.84,190h62.31A13.84,13.84,0,0,1,300,203.84v24.33A26.82,26.82,0,0,1,273.18,255H236.82A26.82,26.82,0,0,1,210,228.18V203.84A13.84,13.84,0,0,1,223.84,190Z" />
        <path class="btn-text" d="M242.86,234.26l2.42-3.18a11.65,11.65,0,0,0,8.62,4c4.08,0,7-2.32,7-6,0-4-2.68-6.58-10.76-6.58v-3.7c7.15,0,9.56-2.68,9.56-6.17,0-3.23-2.2-5.23-5.73-5.23a10.25,10.25,0,0,0-7.22,3.42l-2.61-3.08c2.73-2.5,5.93-4.31,10-4.31,6.14,0,10.5,3.21,10.5,8.84,0,4.06-2.45,6.7-6.19,8.11v.21c4.14,1,7.4,4,7.4,8.7,0,6.18-5.17,9.86-11.56,9.86A14.6,14.6,0,0,1,242.86,234.26Z" />
      </g>
      <g id="two">
        <path class="btn" d="M118.84,190h62.31A13.84,13.84,0,0,1,195,203.84v24.33A26.82,26.82,0,0,1,168.18,255H131.82A26.82,26.82,0,0,1,105,228.18V203.84A13.84,13.84,0,0,1,118.84,190Z" />
        <path class="btn-text" d="M138.6,235.59c10.14-10.05,16-16.2,16-21.71,0-3.85-2.1-6.51-6.31-6.51-2.83,0-5.23,1.8-7.16,4l-2.81-2.74c3-3.23,6.07-5.27,10.59-5.27,6.41,0,10.47,4.06,10.47,10.25,0,6.37-5.86,12.76-13.65,20.94,1.85-.16,4-.31,5.78-.31h9.55v4.19H138.6Z" />
      </g>
      <g id="one">
        <path id="_Rectangle_" data-name="&lt;Rectangle&gt;" class="btn" d="M13.84,190H76.16A13.84,13.84,0,0,1,90,203.84v24.33A26.82,26.82,0,0,1,63.18,255H26.82A26.82,26.82,0,0,1,0,228.18V203.84A13.84,13.84,0,0,1,13.84,190Z" />
        <path class="btn-text" d="M35.65,234.42h7.84V209.79h-6.3v-3.13a21.19,21.19,0,0,0,7.49-2.61h3.71v30.37h7v4.05H35.65Z" />
      </g>
      <g id="zero">
        <path class="btn" d="M14.34,285.5H76.66A13.84,13.84,0,0,1,90.5,299.34v24.33A26.82,26.82,0,0,1,63.68,350.5H27.32A26.82,26.82,0,0,1,.5,323.68V299.34A13.84,13.84,0,0,1,14.34,285.5Z" />
        <path class="btn-text" d="M34.3,316.63c0-11.56,4.26-17.72,11.2-17.72s11.2,6.18,11.2,17.72-4.26,18-11.2,18S34.3,328.2,34.3,316.63Zm17.67,0c0-10-2.64-13.81-6.47-13.81S39,306.63,39,316.63s2.64,14.07,6.47,14.07S52,326.63,52,316.63Z" />
      </g>
    </g>
  </g>
</svg>