<svg xmlns="http://www.w3.org/2000/svg" viewBox="0 0 90 65"><defs><style>.cls-1{fill:#19181b;}.cls-2{fill:#fff;}</style></defs><title>Six</title><g id="Layer_2" data-name="Layer 2"><g id="Layer_1-2" data-name="Layer 1"><g id="Six"><path class="cls-1" d="M13.84,0H76.16A13.84,13.84,0,0,1,90,13.84V38.18A26.82,26.82,0,0,1,63.18,65H26.82A26.82,26.82,0,0,1,0,38.18V13.84A13.84,13.84,0,0,1,13.84,0Z"/><path class="cls-2" d="M33.31,33.24c0-13.71,6.31-19.1,13.23-19.1a11.34,11.34,0,0,1,8.53,3.7l-2.7,3a7.54,7.54,0,0,0-5.62-2.68c-4.82,0-8.84,3.81-8.84,15,0,8.47,2.74,12.79,7.41,12.79,3.24,0,5.77-2.83,5.77-7.28s-2.08-7-6.13-7c-2.17,0-4.86,1.3-7.13,4.73l-.18-3.74c2.11-2.85,5.33-4.63,8.16-4.63,6,0,9.88,3.55,9.88,10.65,0,6.66-4.73,11.11-10.34,11.11C38.58,49.86,33.31,44.43,33.31,33.24Z"/></g></g></g></svg>