<svg xmlns="http://www.w3.org/2000/svg" viewBox="0 0 90 65"><defs><style>.btn{fill:#19181b;}.btn-text{fill:#fff;}</style></defs><title>six</title><g id="Layer_2" data-name="Layer 2"><g id="six"><path id="btn-six" class="btn" d="M13.84,0H76.16A13.84,13.84,0,0,1,90,13.84V38.18A26.82,26.82,0,0,1,63.18,65H26.82A26.82,26.82,0,0,1,0,38.18V13.84A13.84,13.84,0,0,1,13.84,0Z"/><path id="text-six" class="btn-text" d="M34,32.51c0-13.72,6.31-19.1,13.22-19.1a11.31,11.31,0,0,1,8.53,3.7l-2.7,3a7.55,7.55,0,0,0-5.62-2.69c-4.82,0-8.84,3.81-8.84,15C38.61,41,41.35,45.3,46,45.3c3.24,0,5.77-2.83,5.77-7.29s-2.08-7-6.13-7c-2.17,0-4.86,1.29-7.13,4.72L38.35,32c2.11-2.86,5.33-4.63,8.16-4.63,6,0,9.88,3.55,9.88,10.64,0,6.67-4.73,11.11-10.34,11.11C39.28,49.12,34,43.69,34,32.51Z"/></g></g></svg>