<svg xmlns="http://www.w3.org/2000/svg" viewBox="0 0 90 65"><defs><style>.btn{fill:#19181b;}.btn-text{fill:#fff;}</style></defs><title>three</title><g id="Layer_2" data-name="Layer 2"><g id="three"><path id="btn-three" class="btn" d="M13.84,0H76.16A13.84,13.84,0,0,1,90,13.84V38.18A26.82,26.82,0,0,1,63.18,65H26.82A26.82,26.82,0,0,1,0,38.18V13.84A13.84,13.84,0,0,1,13.84,0Z"/><path id="text-three" class="btn-text" d="M32.86,44.26l2.42-3.18a11.65,11.65,0,0,0,8.62,4c4.08,0,7-2.32,7-6,0-3.95-2.68-6.58-10.76-6.58v-3.7c7.15,0,9.56-2.68,9.56-6.17,0-3.23-2.2-5.23-5.73-5.23a10.25,10.25,0,0,0-7.22,3.42l-2.61-3.08c2.73-2.5,5.93-4.31,10-4.31,6.14,0,10.5,3.21,10.5,8.84,0,4.06-2.45,6.7-6.19,8.11v.21c4.14,1,7.4,4,7.4,8.7,0,6.18-5.17,9.86-11.56,9.86A14.6,14.6,0,0,1,32.86,44.26Z"/></g></g></svg>