<svg xmlns="http://www.w3.org/2000/svg" viewBox="0 0 90 65">
  <defs>
    <style>
      .sapin {
        fill: #fff;
      }

      .button {
        fill: #19181b;
      }
    </style>
  </defs>
  <title>two</title>
  <g id="Layer_2" data-name="Layer 2">
    <g id="Layer_1-2" data-name="Layer 1">
      <g id="two">
        <rect id="two-sapin" class="sapin" x="26.76" y="9.59" width="36" height="46" />
        <path id="two-button" class="button" d="M76.16,0H13.84A13.84,13.84,0,0,0,0,13.84V38.18A26.82,26.82,0,0,0,26.82,65H63.18A26.82,26.82,0,0,0,90,38.18V13.84A13.84,13.84,0,0,0,76.16,0ZM56.37,50H33.88V47.15c10.13-10,16-16.2,16-21.71,0-3.85-2.1-6.51-6.31-6.51-2.83,0-5.23,1.8-7.16,4l-2.81-2.74C36.58,17,39.69,15,44.21,15c6.42,0,10.48,4,10.48,10.24C54.69,31.58,48.83,38,41,46.15c1.85-.16,4-.31,5.79-.31h9.55Z" />
      </g>
    </g>
  </g>
</svg>