<svg xmlns="http://www.w3.org/2000/svg" viewBox="0 0 90 65"><defs><style>.btn{fill:#19181b;}.btn-text{fill:#fff;}</style></defs><title>two</title><g id="Layer_2" data-name="Layer 2"><g id="two"><path id="btn-two" class="btn" d="M13.84,0H76.16A13.84,13.84,0,0,1,90,13.84V38.18A26.82,26.82,0,0,1,63.18,65H26.82A26.82,26.82,0,0,1,0,38.18V13.84A13.84,13.84,0,0,1,13.84,0Z"/><path id="text-two" class="btn-text" d="M33.6,45.59c10.14-10.05,16-16.2,16-21.71,0-3.85-2.1-6.51-6.31-6.51-2.82,0-5.23,1.8-7.16,4l-2.81-2.74c2.95-3.23,6.07-5.27,10.59-5.27,6.41,0,10.47,4.06,10.47,10.25,0,6.37-5.86,12.76-13.65,20.94,1.85-.16,4-.31,5.78-.31h9.55v4.19H33.6Z"/></g></g></svg>