<svg xmlns="http://www.w3.org/2000/svg" viewBox="0 0 90 65">
  <defs>
    <style>
      .btn {
        fill: #19181b;
      }

      .btn-text {
        fill: #fff;
      }
    </style>
  </defs>
  <title>zero</title>
  <g id="Layer_2" data-name="Layer 2">
    <g id="zero">
      <path id="btn-zero" class="btn" d="M13.84,0H76.16A13.84,13.84,0,0,1,90,13.84V38.18A26.82,26.82,0,0,1,63.18,65H26.82A26.82,26.82,0,0,1,0,38.18V13.84A13.84,13.84,0,0,1,13.84,0Z" />
      <path id="text-zero" class="btn-text" d="M33.8,31.13c0-11.56,4.26-17.72,11.2-17.72s11.2,6.18,11.2,17.72-4.26,18-11.2,18S33.8,42.7,33.8,31.13Zm17.67,0c0-10-2.64-13.81-6.47-13.81s-6.47,3.81-6.47,13.81S41.17,45.2,45,45.2,51.47,41.13,51.47,31.13Z" />
    </g>
  </g>
</svg>